<svg id="Capa_1" enable-background="new 0 0 512 512" height="512" viewBox="0 0 512 512" width="512" xmlns="http://www.w3.org/2000/svg"><g><path d="m296.324 52.555h22.28c10.517 0 20.551 4.167 28.006 11.622 7.172 7.172 11.65 17.094 11.65 28.007v19.418c0 4.139-3.373 7.512-7.512 7.512s-7.512-3.373-7.512-7.512v-19.418c0-6.774-2.75-12.926-7.229-17.404-4.648-4.621-10.856-7.286-17.404-7.286h-22.28c-1.446 6.321-4.65 11.964-9.101 16.386-6.095 6.123-14.542 9.921-23.84 9.921h-63.95c-4.139 0-7.483-3.373-7.483-7.512s3.345-7.483 7.483-7.483h63.95c5.159 0 9.837-2.126 13.238-5.528s5.527-8.107 5.527-13.238c0-5.159-2.126-9.836-5.527-13.266-3.401-3.402-8.079-5.5-13.238-5.5h-16.951c-4.45 0-7.682-1.672-10.091-4.337-1.984-2.211-3.061-4.847-3.77-7.682-1.021-4.139-3.43-7.738-6.689-10.29-3.175-2.466-7.173-3.969-11.538-3.969h-63.779c-4.366 0-8.335 1.475-11.51 3.94-4.11 3.204-6.208 8.108-6.944 11.169-1.871 7.71-2.693 11.168-13.635 11.168h-16.951c-5.159 0-9.837 2.098-13.267 5.5-3.401 3.43-5.499 8.106-5.499 13.266 0 5.131 2.098 9.836 5.499 13.238 3.43 3.402 8.107 5.528 13.267 5.528h63.95c4.139 0 7.483 3.345 7.483 7.483s-3.345 7.512-7.483 7.512h-63.95c-9.298 0-17.745-3.798-23.868-9.921-4.423-4.422-7.626-10.064-9.072-16.386h-22.279c-6.775 0-12.927 2.807-17.405 7.286-4.479 4.479-7.257 10.63-7.257 17.404v326.782c0 4.139-3.345 7.483-7.483 7.483s-7.512-3.345-7.512-7.483v-326.781c0-10.913 4.45-20.835 11.65-28.007 7.455-7.455 17.462-11.622 28.007-11.622h22.279c1.446-6.293 4.649-11.962 9.072-16.384 6.123-6.095 14.57-9.894 23.868-9.894h16.129c1.758-7.455 5.867-14.173 12.188-19.105 5.756-4.479 12.956-7.172 20.723-7.172h63.779c7.769 0 14.996 2.693 20.723 7.2 6.378 4.989 10.176 11.282 12.188 19.077h16.129c9.298 0 17.745 3.799 23.84 9.894 4.451 4.422 7.655 10.091 9.101 16.384zm-177.112 390.194c1.361 1.361 2.211 3.232 2.211 5.33 0 4.139-3.345 7.512-7.483 7.512-2.098 0-3.997-.879-5.357-2.24l-16.44-16.441-16.47 16.471c-2.949 2.92-7.683 2.92-10.631 0-2.92-2.92-2.92-7.682 0-10.602l16.499-16.499-16.5-16.47c-2.92-2.92-2.92-7.683 0-10.601 2.948-2.949 7.682-2.949 10.631 0l16.47 16.469 16.497-16.469c2.92-2.949 7.653-2.949 10.601 0 2.92 2.919 2.92 7.682 0 10.601l-16.497 16.469zm52.895-24.464c-4.139 0-7.512-3.344-7.512-7.482 0-4.139 3.373-7.512 7.512-7.512h134.308c4.167 0 7.512 3.373 7.512 7.512s-3.345 7.482-7.512 7.482zm0 31.013c-4.139 0-7.512-3.373-7.512-7.512 0-4.14 3.373-7.485 7.512-7.485h98.165c4.139 0 7.483 3.346 7.483 7.485s-3.345 7.512-7.483 7.512zm0-118.887c-4.139 0-7.512-3.346-7.512-7.484 0-4.139 3.373-7.512 7.512-7.512h134.308c4.167 0 7.512 3.373 7.512 7.512s-3.345 7.484-7.512 7.484zm0 31.011c-4.139 0-7.512-3.374-7.512-7.513 0-4.138 3.373-7.482 7.512-7.482h98.165c4.139 0 7.483 3.345 7.483 7.482 0 4.139-3.345 7.513-7.483 7.513zm0-118.887c-4.139 0-7.512-3.344-7.512-7.482 0-4.139 3.373-7.513 7.512-7.513h134.308c4.167 0 7.512 3.374 7.512 7.513s-3.345 7.482-7.512 7.482zm0 31.012c-4.139 0-7.512-3.373-7.512-7.512s3.373-7.484 7.512-7.484h98.165c4.139 0 7.483 3.346 7.483 7.484 0 4.139-3.345 7.512-7.483 7.512zm0-118.886c-4.139 0-7.512-3.346-7.512-7.485s3.373-7.512 7.512-7.512h134.308c4.167 0 7.512 3.373 7.512 7.512 0 4.14-3.345 7.485-7.512 7.485zm0 31.011c-4.139 0-7.512-3.345-7.512-7.512 0-4.139 3.373-7.483 7.512-7.483h98.165c4.139 0 7.483 3.345 7.483 7.483 0 4.167-3.345 7.512-7.483 7.512zm-52.669 126.597c2.92-2.92 7.654-2.92 10.601 0 2.92 2.92 2.92 7.682 0 10.602l-41.697 41.698c-2.948 2.92-7.682 2.92-10.63 0l-23.472-23.472c-2.92-2.919-2.92-7.682 0-10.602 2.948-2.919 7.682-2.919 10.63 0l18.171 18.171zm0-87.874c2.92-2.92 7.654-2.92 10.601 0 2.92 2.919 2.92 7.682 0 10.602l-41.697 41.697c-2.948 2.947-7.682 2.947-10.63 0l-23.472-23.471c-2.92-2.92-2.92-7.683 0-10.602 2.948-2.92 7.682-2.92 10.63 0l18.171 18.17zm0-87.877c2.92-2.92 7.654-2.92 10.601 0 2.92 2.92 2.92 7.682 0 10.602l-41.697 41.699c-2.948 2.948-7.682 2.948-10.63 0l-23.472-23.472c-2.92-2.919-2.92-7.682 0-10.602 2.948-2.919 7.682-2.919 10.63 0l18.171 18.171zm345.634 43.286v247.411h25.285v-247.411zm-15.023 247.411v-247.411h-25.286v106.726c0 4.139-3.345 7.484-7.512 7.484-4.139 0-7.483-3.346-7.483-7.484 0-54.255 0-108.54 0-162.796 0-7.738 3.175-14.797 8.249-19.899 5.102-5.102 12.16-8.248 19.898-8.248h39.261c7.768 0 14.797 3.146 19.899 8.248 5.103 5.103 8.277 12.161 8.277 19.899v310.993c0 1.928-.481 2.75-1.389 4.338l-39.884 69.109c-2.807 4.961-10.092 5.131-12.982.057l-39.885-69.053c-.907-1.645-1.445-2.438-1.445-4.451v-114.238c0-4.139 3.345-7.483 7.483-7.483 4.167 0 7.512 3.345 7.512 7.483v106.726zm-19.844 14.996 27.355 47.367 27.355-47.367zm46.971-331.63h-39.261c-3.6 0-6.888 1.474-9.27 3.854-2.409 2.41-3.883 5.698-3.883 9.298v41.075h65.595v-41.075c0-3.6-1.475-6.888-3.884-9.298-2.38-2.38-5.668-3.854-9.297-3.854zm-133.939 35.008c0-4.167 3.373-7.512 7.512-7.512s7.512 3.345 7.512 7.512v326.754c0 10.914-4.479 20.835-11.65 28.035-7.201 7.172-17.093 11.622-28.007 11.622h-272.3c-10.914 0-20.835-4.45-28.007-11.622-7.2-7.2-11.65-17.121-11.65-28.035v-19.417c0-4.138 3.373-7.483 7.512-7.483s7.483 3.346 7.483 7.483v19.417c0 6.775 2.778 12.955 7.257 17.405 4.478 4.479 10.63 7.257 17.405 7.257h272.3c6.774 0 12.926-2.778 17.404-7.257 4.479-4.45 7.229-10.63 7.229-17.405z"/></g></svg>