<svg id="Capa_1" enable-background="new 0 0 512 512" height="512" viewBox="0 0 512 512" width="512" xmlns="http://www.w3.org/2000/svg"><g><path d="m282.613 55.975-37.393-55.975h-58.19c-2.1 0-4.15.44-6.03 1.27l-38.34 74.191-75.67 35.22c-.93 1.98-1.43 4.16-1.43 6.4v347.993c0 8.28 6.72 15 15 15h164.66l37.393-44.07z" fill="#e4ebf2"/><g><path d="m180.999 1.27v94.411c0 8.28-6.72 15-15 15h-99.01c.78-1.64 1.85-3.15 3.19-4.43l106.47-102.081c1.27-1.23 2.75-2.2 4.35-2.9z" fill="#ccd6e7"/></g><path d="m424.88 15v450.074c0 8.28-6.72 15-15 15h-164.66v-480.074h164.66c8.28 0 15 6.72 15 15z" fill="#ccd6e7"/><g><path d="m263.117 159.951-17.897-29.44h-33.44c-17.3 0-31.37 14.07-31.37 31.37v133.301c0 17.3 14.07 31.37 31.37 31.37h33.44l17.897-26.877z" fill="#ff80aa"/></g><path d="m512 161.881v133.301c0 17.3-14.08 31.37-31.38 31.37h-235.4v-196.041h235.4c17.3 0 31.38 14.07 31.38 31.37z" fill="#ff4d88"/><g><path d="m197.099 401.353-85.22 105.101c-6.023 7.418-17.325 7.372-23.31 0l-85.22-105.101c-3.64-4.49-4.38-10.68-1.89-15.9s7.76-8.54 13.54-8.54h29v-103.981c0-8.28 6.71-15 15-15h82.45c8.29 0 15 6.72 15 15v103.981h29c5.78 0 11.05 3.32 13.54 8.54s1.75 11.41-1.89 15.9z" fill="#a9f"/></g><path d="m444.232 217.533h-19.848v-19.242h22.424c5.523 0 10-4.478 10-10s-4.477-10-10-10h-32.424c-5.523 0-10 4.478-10 10v80.001c0 5.523 4.477 10 10 10s10-4.478 10-10v-30.758h19.848c5.523 0 10-4.478 10-10s-4.477-10.001-10-10.001z" fill="#ccd6e7"/><path d="m347.918 178.291c-23.983 0-25.945-.862-29.735 2.936-1.876 1.88-2.927 4.428-2.922 7.083v.062.003c0 85.198-.088 79.16.196 80.583.356 5.329 4.766 9.334 9.967 9.334h.038c.685-.003 16.84-.065 23.295-.179 24.028-.419 41.469-21.372 41.469-49.822-.001-29.907-17.003-50-42.308-50zm.488 79.825c-2.99.052-8.269.094-13.017.124-.03-9.469-.07-23.21-.07-30.038 0-5.746-.023-20.078-.04-29.911h12.64c16.447 0 22.307 15.497 22.307 30-.001 14.655-6.747 29.562-21.82 29.825z" fill="#ccd6e7"/><path d="m248.725 192.688-3.505-14.397c-5.53 0-10 4.51-10 10v80.001c0 5.52 4.48 10 10 10l3.505-15.878z" fill="#e4ebf2"/><path d="m267.5 178.291h-22.28v100.001c5.53 0 10-4.48 10-10v-24.81c4.5-.02 9.44-.04 12.28-.04 18.2 0 33.02-14.61 33.02-32.58 0-17.96-14.82-32.571-33.02-32.571zm0 45.151c-2.83 0-7.71.02-12.18.04-.06-13.11-.02-8-.07-25.19h12.25c7.05 0 13.02 5.76 13.02 12.57 0 6.82-5.97 12.58-13.02 12.58z" fill="#ccd6e7"/></g></svg>