<svg id="Capa_1" enable-background="new 0 0 497 497" height="512" viewBox="0 0 497 497" width="512" xmlns="http://www.w3.org/2000/svg"><g><path d="m451.992 279.175c27.904-29.651 45.008-69.58 45.008-113.508 0-91.495-74.171-165.667-165.667-165.667v331.333c29.552 0 57.291-7.747 81.313-21.307 14.27 13.221 33.366 21.307 54.354 21.307 3.717 0 7.375-.254 10.957-.746 6.807-.934 8.981-9.66 3.346-13.59-13.263-9.25-23.59-22.417-29.311-37.822z" fill="#b8b4b3"/><path d="m331.333 0c-91.495 0-165.666 74.171-165.666 165.667s74.171 165.667 165.666 165.667c74.927-.001 135.667-74.172 135.667-165.667s-60.74-165.667-135.667-165.667z" fill="#d0cdcd"/><g fill="#292827"><circle cx="331.333" cy="166.333" r="7.5"/><circle cx="361.333" cy="166.333" r="7.5"/><circle cx="301.333" cy="166.333" r="7.5"/></g><path d="m165.667 165.667v331.333c91.495 0 165.667-74.171 165.667-165.667-.001-91.495-74.172-165.666-165.667-165.666z" fill="#e7e6e6"/><path d="m301.334 331.333c0-91.495-60.74-165.667-135.667-165.667-91.496.001-165.667 74.172-165.667 165.667 0 43.929 17.104 83.858 45.008 113.508-5.722 15.406-16.048 28.573-29.311 37.823-5.635 3.93-3.461 12.656 3.346 13.59 3.582.492 7.24.746 10.957.746 20.988 0 40.083-8.086 54.354-21.307 24.021 13.56 51.761 21.307 81.313 21.307 74.927 0 135.667-74.171 135.667-165.667z" fill="#f7f7f7"/><path d="m183.074 326.711c2.165-3.334 3.423-7.308 3.423-11.57 0-11.748-9.558-21.306-21.306-21.306h-17.429c-4.143 0-7.5 3.358-7.5 7.5v60c0 1.995.795 3.908 2.208 5.315 1.406 1.4 3.309 2.185 5.292 2.185.033 0 16.056-.071 20.472-.071 13.041 0 23.65-10.609 23.65-23.65.001-7.427-3.44-14.064-8.81-18.403zm-27.811-17.877h9.929c3.477 0 6.306 2.829 6.306 6.306s-2.829 6.306-6.306 6.306c-.166 0-.332.005-.495.016h-9.434zm12.971 44.929c-2.388 0-8.158.021-12.972.04v-17.34h12.972c4.77 0 8.65 3.88 8.65 8.65.001 4.77-3.88 8.65-8.65 8.65z" fill="#464342"/><path d="m102.768 299.51c-.021-.056-.043-.112-.066-.168-1.365-3.341-4.591-5.503-8.201-5.508-3.61.004-6.836 2.167-8.201 5.508-.023.056-.045.112-.066.168l-22.53 59.155c-1.475 3.871.469 8.204 4.339 9.678 3.87 1.472 8.204-.467 9.679-4.339l3.777-9.902h26.006l3.777 9.902c1.475 3.872 5.809 5.812 9.679 4.339 3.87-1.474 5.813-5.808 4.339-9.678zm-15.548 39.591 7.281-19.086 7.281 19.086z" fill="#464342"/><path d="m256.423 349.996c-3.717 2.511-8.065 3.838-12.575 3.838-12.406 0-22.5-10.093-22.5-22.5s10.094-22.5 22.5-22.5c4.51 0 8.858 1.327 12.575 3.838 3.433 2.319 8.095 1.416 10.413-2.016s1.416-8.095-2.017-10.414c-6.205-4.192-13.458-6.409-20.972-6.409-20.678 0-37.5 16.822-37.5 37.5s16.822 37.5 37.5 37.5c7.514 0 14.767-2.216 20.972-6.409 3.433-2.319 4.335-6.981 2.017-10.414s-6.981-4.333-10.413-2.014z" fill="#464342"/></g></svg>